ExpData
version=1
nRows=28
nColumns=40
inDegrees=yes
Unit are S.I. units (second, meters, Newtons, ...
endheader
time	pelvis_tilt	pelvis_list	pelvis_rotation	pelvis_tx	pelvis_ty	pelvis_tz	hip_flexion_r	hip_adduction_r	hip_rotation_r	knee_angle_r	knee_angle_r_beta	ankle_angle_r	subtalar_angle_r	mtp_angle_r	hip_flexion_l	hip_adduction_l	hip_rotation_l	knee_angle_l	knee_angle_l_beta	ankle_angle_l	subtalar_angle_l	mtp_angle_l	lumbar_extension	lumbar_bending	lumbar_rotation	arm_flex_r	arm_add_r	arm_rot_r	elbow_flex_r	pro_sup_r	wrist_flex_r	wrist_dev_r	arm_flex_l	arm_add_l	arm_rot_l	elbow_flex_l	pro_sup_l	wrist_flex_l	wrist_dev_l	
10.500000	17.342005	-1.611965	2.388324	-0.861380	0.580751	0.264458	45.000000	-10.000000	0.000000	60.000000	1.047200	-5.000000	0.000000	0.000000	45.000000	-10.000000	0.000000	60.000000	1.047200	-5.000000	0.000000	0.000000	-26.806695	3.580536	0.908492	0.081138	-39.849612	-11.111956	105.112435	88.406639	0.000000	0.000000	-0.634136	-44.486198	-7.927160	100.678914	89.313837	0.000000	0.000000	
10.505000	17.338552	-1.613318	2.385982	-0.861382	0.580742	0.264459	45.000000	-10.000000	0.000000	60.000000	1.047200	-5.000000	0.000000	0.000000	45.000000	-10.000000	0.000000	60.000000	1.047200	-5.000000	0.000000	0.000000	-26.807846	3.574327	0.916035	0.062598	-39.836007	-11.137774	105.121316	88.408249	0.000000	0.000000	-0.624856	-44.466488	-7.934673	100.682472	89.314023	0.000000	0.000000	
10.510000	17.335194	-1.614587	2.383771	-0.861383	0.580734	0.264460	45.000000	-10.000000	0.000000	60.000000	1.047200	-5.000000	0.000000	0.000000	45.000000	-10.000000	0.000000	60.000000	1.047200	-5.000000	0.000000	0.000000	-26.809404	3.568094	0.925128	0.040767	-39.821948	-11.167357	105.130996	88.409802	0.000000	0.000000	-0.612821	-44.447156	-7.938651	100.686022	89.314240	0.000000	0.000000	
10.515000	17.331939	-1.615792	2.381681	-0.861385	0.580726	0.264461	45.000000	-10.000000	0.000000	60.000000	1.047200	-5.000000	0.000000	0.000000	45.000000	-10.000000	0.000000	60.000000	1.047200	-5.000000	0.000000	0.000000	-26.811456	3.561869	0.935717	0.015683	-39.807477	-11.200627	105.141433	88.411257	0.000000	0.000000	-0.598110	-44.428212	-7.939164	100.689605	89.314486	0.000000	0.000000	
10.520000	17.328780	-1.616954	2.379687	-0.861387	0.580717	0.264462	45.000000	-10.000000	0.000000	60.000000	1.047200	-5.000000	0.000000	0.000000	45.000000	-10.000000	0.000000	60.000000	1.047200	-5.000000	0.000000	0.000000	-26.814076	3.555672	0.947741	-0.012573	-39.792632	-11.237450	105.152575	88.412575	0.000000	0.000000	-0.580815	-44.409677	-7.936288	100.693264	89.314758	0.000000	0.000000	
10.525000	17.325710	-1.618089	2.377764	-0.861388	0.580710	0.264463	45.000000	-10.000000	0.000000	60.000000	1.047200	-5.000000	0.000000	0.000000	45.000000	-10.000000	0.000000	60.000000	1.047200	-5.000000	0.000000	0.000000	-26.817319	3.549502	0.961132	-0.043863	-39.777452	-11.277630	105.164367	88.413724	0.000000	0.000000	-0.561050	-44.391586	-7.930114	100.697044	89.315052	0.000000	0.000000	
10.530000	17.322730	-1.619202	2.375894	-0.861390	0.580702	0.264464	45.000000	-10.000000	0.000000	60.000000	1.047200	-5.000000	0.000000	0.000000	45.000000	-10.000000	0.000000	60.000000	1.047200	-5.000000	0.000000	0.000000	-26.821216	3.543347	0.975813	-0.078006	-39.761970	-11.320915	105.176747	88.414676	0.000000	0.000000	-0.538947	-44.373994	-7.920739	100.700986	89.315363	0.000000	0.000000	
10.535000	17.319850	-1.620294	2.374072	-0.861392	0.580694	0.264466	45.000000	-10.000000	0.000000	60.000000	1.047200	-5.000000	0.000000	0.000000	45.000000	-10.000000	0.000000	60.000000	1.047200	-5.000000	0.000000	0.000000	-26.825774	3.537191	0.991692	-0.114775	-39.746221	-11.367007	105.189651	88.415413	0.000000	0.000000	-0.514663	-44.356966	-7.908273	100.705126	89.315686	0.000000	0.000000	
10.540000	17.317093	-1.621356	2.372305	-0.861393	0.580687	0.264467	45.000000	-10.000000	0.000000	60.000000	1.047200	-5.000000	0.000000	0.000000	45.000000	-10.000000	0.000000	60.000000	1.047200	-5.000000	0.000000	0.000000	-26.830973	3.531020	1.008656	-0.153912	-39.730239	-11.415579	105.203007	88.415925	0.000000	0.000000	-0.488377	-44.340581	-7.892832	100.709496	89.316015	0.000000	0.000000	
10.545000	17.314501	-1.622367	2.370610	-0.861394	0.580680	0.264469	45.000000	-10.000000	0.000000	60.000000	1.047200	-5.000000	0.000000	0.000000	45.000000	-10.000000	0.000000	60.000000	1.047200	-5.000000	0.000000	0.000000	-26.836755	3.524828	1.026585	-0.195132	-39.714059	-11.466287	105.216742	88.416217	0.000000	0.000000	-0.460282	-44.324922	-7.874543	100.714117	89.316345	0.000000	0.000000	
10.550000	17.312128	-1.623297	2.369011	-0.861396	0.580674	0.264471	45.000000	-10.000000	0.000000	60.000000	1.047200	-5.000000	0.000000	0.000000	45.000000	-10.000000	0.000000	60.000000	1.047200	-5.000000	0.000000	0.000000	-26.843036	3.518620	1.045356	-0.238139	-39.697726	-11.518786	105.230780	88.416299	0.000000	0.000000	-0.430573	-44.310071	-7.853521	100.719000	89.316668	0.000000	0.000000	
10.555000	17.310026	-1.624119	2.367535	-0.861397	0.580668	0.264473	45.000000	-10.000000	0.000000	60.000000	1.047200	-5.000000	0.000000	0.000000	45.000000	-10.000000	0.000000	60.000000	1.047200	-5.000000	0.000000	0.000000	-26.849740	3.512401	1.064849	-0.282640	-39.681298	-11.572739	105.245048	88.416193	0.000000	0.000000	-0.399425	-44.296109	-7.829864	100.724132	89.316980	0.000000	0.000000	
10.560000	17.308227	-1.624823	2.366194	-0.861397	0.580663	0.264475	45.000000	-10.000000	0.000000	60.000000	1.047200	-5.000000	0.000000	0.000000	45.000000	-10.000000	0.000000	60.000000	1.047200	-5.000000	0.000000	0.000000	-26.856788	3.506174	1.084953	-0.328354	-39.664838	-11.627831	105.259468	88.415924	0.000000	0.000000	-0.366985	-44.283117	-7.803649	100.729476	89.317278	0.000000	0.000000	
10.565000	17.306736	-1.625411	2.364984	-0.861398	0.580659	0.264476	45.000000	-10.000000	0.000000	60.000000	1.047200	-5.000000	0.000000	0.000000	45.000000	-10.000000	0.000000	60.000000	1.047200	-5.000000	0.000000	0.000000	-26.864090	3.499931	1.105565	-0.375019	-39.648411	-11.683766	105.273960	88.415516	0.000000	0.000000	-0.333384	-44.271165	-7.774958	100.734965	89.317559	0.000000	0.000000	
10.570000	17.305526	-1.625897	2.363888	-0.861399	0.580655	0.264477	45.000000	-10.000000	0.000000	60.000000	1.047200	-5.000000	0.000000	0.000000	45.000000	-10.000000	0.000000	60.000000	1.047200	-5.000000	0.000000	0.000000	-26.871539	3.493659	1.126590	-0.422400	-39.632073	-11.740281	105.288456	88.414988	0.000000	0.000000	-0.298746	-44.260310	-7.743899	100.740518	89.317823	0.000000	0.000000	
10.575000	17.304535	-1.626307	2.362877	-0.861399	0.580652	0.264478	45.000000	-10.000000	0.000000	60.000000	1.047200	-5.000000	0.000000	0.000000	45.000000	-10.000000	0.000000	60.000000	1.047200	-5.000000	0.000000	0.000000	-26.879017	3.487339	1.147937	-0.470291	-39.615864	-11.797148	105.302909	88.414356	0.000000	0.000000	-0.263203	-44.250587	-7.710617	100.746049	89.318070	0.000000	0.000000	
10.580000	17.303680	-1.626670	2.361919	-0.861399	0.580649	0.264479	45.000000	-10.000000	0.000000	60.000000	1.047200	-5.000000	0.000000	0.000000	45.000000	-10.000000	0.000000	60.000000	1.047200	-5.000000	0.000000	0.000000	-26.886396	3.480940	1.169516	-0.518517	-39.599806	-11.854179	105.317298	88.413639	0.000000	0.000000	-0.226878	-44.242016	-7.675278	100.751464	89.318304	0.000000	0.000000	
10.585000	17.302877	-1.627015	2.360988	-0.861399	0.580646	0.264480	45.000000	-10.000000	0.000000	60.000000	1.047200	-5.000000	0.000000	0.000000	45.000000	-10.000000	0.000000	60.000000	1.047200	-5.000000	0.000000	0.000000	-26.893539	3.474424	1.191255	-0.566934	-39.583911	-11.911225	105.331618	88.412865	0.000000	0.000000	-0.189877	-44.234608	-7.638053	100.756660	89.318524	0.000000	0.000000	
10.590000	17.302060	-1.627352	2.360074	-0.861399	0.580643	0.264481	45.000000	-10.000000	0.000000	60.000000	1.047200	-5.000000	0.000000	0.000000	45.000000	-10.000000	0.000000	60.000000	1.047200	-5.000000	0.000000	0.000000	-26.900309	3.467764	1.213103	-0.615424	-39.568186	-11.968170	105.345861	88.412081	0.000000	0.000000	-0.152287	-44.228362	-7.599117	100.761531	89.318730	0.000000	0.000000	
10.595000	17.301187	-1.627677	2.359175	-0.861399	0.580639	0.264483	45.000000	-10.000000	0.000000	60.000000	1.047200	-5.000000	0.000000	0.000000	45.000000	-10.000000	0.000000	60.000000	1.047200	-5.000000	0.000000	0.000000	-26.906569	3.460946	1.235031	-0.663877	-39.552636	-12.024911	105.360004	88.411344	0.000000	0.000000	-0.114197	-44.223268	-7.558662	100.765987	89.318918	0.000000	0.000000	
10.600000	17.300228	-1.627981	2.358299	-0.861399	0.580636	0.264484	45.000000	-10.000000	0.000000	60.000000	1.047200	-5.000000	0.000000	0.000000	45.000000	-10.000000	0.000000	60.000000	1.047200	-5.000000	0.000000	0.000000	-26.912193	3.453975	1.257006	-0.712187	-39.537261	-12.081348	105.374012	88.410714	0.000000	0.000000	-0.075701	-44.219307	-7.516898	100.769968	89.319087	0.000000	0.000000	
10.605000	17.299165	-1.628257	2.357458	-0.861398	0.580632	0.264486	45.000000	-10.000000	0.000000	60.000000	1.047200	-5.000000	0.000000	0.000000	45.000000	-10.000000	0.000000	60.000000	1.047200	-5.000000	0.000000	0.000000	-26.917096	3.446861	1.278968	-0.760250	-39.522055	-12.137379	105.387840	88.410233	0.000000	0.000000	-0.036899	-44.216460	-7.474046	100.773433	89.319235	0.000000	0.000000	
10.610000	17.297988	-1.628502	2.356669	-0.861398	0.580627	0.264488	45.000000	-10.000000	0.000000	60.000000	1.047200	-5.000000	0.000000	0.000000	45.000000	-10.000000	0.000000	60.000000	1.047200	-5.000000	0.000000	0.000000	-26.921252	3.439612	1.300828	-0.807954	-39.507004	-12.192895	105.401448	88.409902	0.000000	0.000000	0.002109	-44.214704	-7.430332	100.776353	89.319366	0.000000	0.000000	
10.615000	17.296702	-1.628714	2.355945	-0.861398	0.580623	0.264489	45.000000	-10.000000	0.000000	60.000000	1.047200	-5.000000	0.000000	0.000000	45.000000	-10.000000	0.000000	60.000000	1.047200	-5.000000	0.000000	0.000000	-26.924712	3.432241	1.322526	-0.855187	-39.492093	-12.247788	105.414793	88.409682	0.000000	0.000000	0.041236	-44.214007	-7.385978	100.778691	89.319485	0.000000	0.000000	
10.620000	17.295328	-1.628891	2.355290	-0.861397	0.580618	0.264491	45.000000	-10.000000	0.000000	60.000000	1.047200	-5.000000	0.000000	0.000000	45.000000	-10.000000	0.000000	60.000000	1.047200	-5.000000	0.000000	0.000000	-26.927596	3.424761	1.344046	-0.901846	-39.477310	-12.301959	105.427821	88.409513	0.000000	0.000000	0.080435	-44.214327	-7.341166	100.780400	89.319601	0.000000	0.000000	
10.625000	17.293890	-1.629031	2.354697	-0.861397	0.580613	0.264493	45.000000	-10.000000	0.000000	60.000000	1.047200	-5.000000	0.000000	0.000000	45.000000	-10.000000	0.000000	60.000000	1.047200	-5.000000	0.000000	0.000000	-26.930061	3.417186	1.365403	-0.947844	-39.462650	-12.355326	105.440465	88.409342	0.000000	0.000000	0.119688	-44.215610	-7.296036	100.781433	89.319718	0.000000	0.000000	
10.630000	17.292411	-1.629135	2.354151	-0.861397	0.580608	0.264495	45.000000	-10.000000	0.000000	60.000000	1.047200	-5.000000	0.000000	0.000000	45.000000	-10.000000	0.000000	60.000000	1.047200	-5.000000	0.000000	0.000000	-26.932261	3.409535	1.386617	-0.993115	-39.448111	-12.407827	105.452663	88.409133	0.000000	0.000000	0.158991	-44.217785	-7.250704	100.781752	89.319839	0.000000	0.000000	
10.635000	17.290919	-1.629208	2.353632	-0.861396	0.580602	0.264496	45.000000	-10.000000	0.000000	60.000000	1.047200	-5.000000	0.000000	0.000000	45.000000	-10.000000	0.000000	60.000000	1.047200	-5.000000	0.000000	0.000000	-26.934339	3.401834	1.407705	-1.037616	-39.433692	-12.459425	105.464368	88.408866	0.000000	0.000000	0.198340	-44.220770	-7.205277	100.781334	89.319962	0.000000	0.000000	
